<svg data-name="Layer 1" xmlns="http://www.w3.org/2000/svg" xmlns:xlink="http://www.w3.org/1999/xlink" width="1167.5" height="756"><defs><linearGradient id="a" x1="588.2" y1="804.7" x2="588.2" y2="185.7" gradientUnits="userSpaceOnUse"><stop offset="0" stop-color="gray" stop-opacity=".3"/><stop offset=".5" stop-color="gray" stop-opacity=".1"/><stop offset="1" stop-color="gray" stop-opacity=".1"/></linearGradient><linearGradient id="b" x1="567.7" y1="1179.8" x2="567.7" y2="1173.8" gradientTransform="translate(74 -1004)" xlink:href="#a"/><linearGradient id="c" x1="588.5" y1="693" x2="588.5" y2="483.2" xlink:href="#a"/></defs><ellipse cx="560.8" cy="725" rx="541" ry="31" fill="#6c63ff" opacity=".1"/><g opacity=".2"><path d="M1007 726a18 18 0 01-1 3l-18-12v-1a17 17 0 016-6c4-2 7-3 10-1s5 5 5 9a17 17 0 01-2 8z" fill="#3f3d56"/><ellipse cx="1022.1" cy="778.3" rx="14" ry="10.7" transform="rotate(-62 954 756)" fill="#3f3d56"/><ellipse cx="1030.1" cy="763.1" rx="14" ry="10.7" transform="rotate(-62 962 741)" fill="#3f3d56"/><ellipse cx="1038.1" cy="748" rx="14" ry="10.7" transform="rotate(-62 970 725)" fill="#3f3d56"/><ellipse cx="1046.1" cy="732.9" rx="14" ry="10.7" transform="rotate(-62 978 710)" fill="#3f3d56"/><path d="M1049 539a52 52 0 010-7l27 9-27-14a51 51 0 0118-37l26 38-20-42a51 51 0 1148 90 51 51 0 010 11h-41l41 7a51 51 0 01-30 38 51 51 0 11-71-37 51 51 0 0129-56z" fill="#6c63ff"/><path d="M1115 609a51 51 0 01-24 23 51 51 0 11-71-37c-2-11 98 9 95 14z" opacity=".1"/></g><g opacity=".2"><path d="M975 424a32 32 0 01-2 5l-31-16 1-1a27 27 0 018-12c5-4 11-5 16-3s9 7 10 13a27 27 0 01-2 14z" fill="#3f3d56"/><ellipse cx="985" cy="463.9" rx="22.7" ry="17.3" transform="rotate(-69 925 440)" fill="#3f3d56"/><ellipse cx="994.9" cy="437.9" rx="22.7" ry="17.3" transform="rotate(-69 935 414)" fill="#3f3d56"/><ellipse cx="1004.8" cy="412" rx="22.7" ry="17.3" transform="rotate(-69 944 388)" fill="#3f3d56"/><ellipse cx="1014.6" cy="386.1" rx="22.7" ry="17.3" transform="rotate(-69 954 362)" fill="#3f3d56"/><path d="M1005 114a83 83 0 01-2-11l45 9-46-17a83 83 0 0122-62l49 55-41-64a83 83 0 1195 136 83 83 0 014 18l-66 7 66 3a83 83 0 01-40 68 83 83 0 11-122-46 83 83 0 0136-96z" fill="#6c63ff"/><path d="M1126 214a83 83 0 01-35 42 83 83 0 11-122-46c-6-18 160-4 157 4z" opacity=".1"/></g><g opacity=".2"><path d="M178 510a37 37 0 002 6l39-14-1-2a32 32 0 00-8-15c-5-5-12-8-18-6s-11 7-13 14a32 32 0 00-1 17z" fill="#3f3d56"/><ellipse cx="206.8" cy="545.2" rx="20.6" ry="27" transform="rotate(-14 -101 577)" fill="#3f3d56"/><ellipse cx="199" cy="513.2" rx="20.6" ry="27" transform="rotate(-14 -108 545)" fill="#3f3d56"/><ellipse cx="191.2" cy="481.2" rx="20.6" ry="27" transform="rotate(-14 -116 513)" fill="#3f3d56"/><ellipse cx="183.4" cy="449.1" rx="20.6" ry="27" transform="rotate(-14 -124 480)" fill="#3f3d56"/><path d="M189 140a98 98 0 004-13l-54 4 57-13a99 99 0 00-17-77l-67 58 58-69A99 99 0 1038 176a99 99 0 00-7 21l77 18-79-6a99 99 0 0038 86 99 99 0 10151-37 99 99 0 00-29-118z" fill="#6c63ff"/><path d="M32 241a98 98 0 0035 54 99 99 0 10151-37c8-19-189-28-186-17z" opacity=".1"/></g><path d="M1073 186H104a9 9 0 00-9 8v593a17 17 0 0018 18h951a17 17 0 0017-18V194a9 9 0 00-8-8z" transform="translate(-16 -72)" fill="url(#a)"/><path d="M1061 151v561a17 17 0 01-17 17H100a17 17 0 01-17-17V151z" fill="#fff"/><path d="M1061 126v25H83v-25a9 9 0 019-9h960a9 9 0 019 9z" fill="#ededf4"/><circle cx="98.5" cy="133.5" r="4" fill="#fa5959" opacity=".8"/><circle cx="109.5" cy="133.5" r="4" fill="#fed253" opacity=".8"/><circle cx="120.5" cy="133.5" r="4" fill="#8ccf4d" opacity=".8"/><path transform="rotate(90 670 129)" fill="url(#b)" d="M640 170h4v6h-4z"/><path fill="#ededf4" d="M308 200h94v10h-94zM308 229h528v10H308zM308 258h528v10H308zM308 287h528v10H308zM308 316h528v10H308zM409 371h326v252H409z"/><path d="M645 521h-1a6 6 0 000-2 17 17 0 00-2-7 31 31 0 00-2-4l-9-11a18 18 0 01-3-4 23 23 0 00-1-3 6 6 0 00-5-3 9 9 0 00-6 3l-1 3 3 3-1 2a11 11 0 00-3 1 4 4 0 00-2 3l5-2a9 9 0 016-1 6 6 0 013 2 8 8 0 011 1 20 20 0 013 10l1 5a36 36 0 00-4 1 24 24 0 01-10-1c-3-1-7-3-11-2l-4 2a14 14 0 01-4 0l-3-1v-1a21 21 0 01-1-6 11 11 0 009-15 9 9 0 004-4h-1l1-1a1 1 0 01-1-2 4 4 0 00-1 0l-1-1a5 5 0 00-1 0 6 6 0 01-2-1c-4-1-9-3-13-1a17 17 0 00-6 2 7 7 0 00-2 10 23 23 0 011 5 16 16 0 01-1 4 20 20 0 003 1 17 17 0 01-3 6 24 24 0 01-2 2 49 49 0 01-6 1l-6-1a17 17 0 00-4 1 56 56 0 01-17 2v-4a20 20 0 014-9 8 8 0 011-2 6 6 0 012-1 9 9 0 017 0l4 2a4 4 0 00-1-3 11 11 0 00-3-1l-1-2 2-2v-3a9 9 0 00-6-3 6 6 0 00-5 3 21 21 0 00-1 2 18 18 0 01-4 5l-8 11a33 33 0 00-2 4 17 17 0 00-2 7 6 6 0 000 2 2 2 0 000 2l6 3a32 32 0 004 1c3 1 6 3 9 2h6c3 0 6 3 7 5a18 18 0 014 6c1 3 0 6 2 9a6 6 0 010 2 6 6 0 010 2c-1 4 1 8 1 12l-1 6c0 2 1 5-1 7l3-1c-4 13-8 25-8 38 1 9 2 18-2 25a10 10 0 00-2 2v5c1 6-2 11-2 18a36 36 0 000 5l1 10a7 7 0 00-3 2l-2 4 3 2a8 8 0 014 2 14 14 0 001 1 4 4 0 002 0h5a2 2 0 001-1 2 2 0 000-1 20 20 0 000-5v-1a18 18 0 001-4l1-6 1-15 1-7 1-7a207 207 0 019-34c1-3 2-6 5-6l1 3 5 12c2 5 1 11 4 16l1 3a14 14 0 011 4l2 18c1 8 2 16 5 23a9 9 0 001 2 23 23 0 000 3 1 1 0 002 2l4 1a4 4 0 002-1 11 11 0 002-1 8 8 0 013-1l3-2c1-2 0-4-1-5a7 7 0 00-4-1 6 6 0 01-2 0 8 8 0 001-2 10 10 0 01-1-3 14 14 0 011-2c1-4-1-7-2-11v-15c0-7-6-15-4-22 1-6 0-13-1-19l-4-23a25 25 0 00-2-5 13 13 0 003-1v-7l-1-8a51 51 0 01-1-7 25 25 0 011-6 30 30 0 012-5 93 93 0 017-14l12-1a17 17 0 003 0 37 37 0 013-1 5 5 0 002-1l2-1a4 4 0 001 0l1-1 3-2a4 4 0 001-4z" transform="translate(-16 -72)" fill="url(#c)"/><circle cx="576.9" cy="427.2" r="11" fill="#a1616a"/><path d="M564 441a27 27 0 01-4 4 30 30 0 0022 3l-2-1a4 4 0 01-2-3 21 21 0 010-8 5 5 0 000-2 4 4 0 00-2-2 20 20 0 00-5-2c-2-1-3-1-3 1a17 17 0 01-4 10zM615 448l-1-7a26 26 0 00-1-5 27 27 0 00-2-5 8 8 0 00-2-2 6 6 0 00-2-1 9 9 0 00-6 1l-5 2a4 4 0 012-3 11 11 0 013-2v-1l-2-3c-1-1 0-2 1-3a9 9 0 015-3 6 6 0 016 3 21 21 0 011 3 18 18 0 003 4l8 11a35 35 0 013 4 17 17 0 012 7 4 4 0 01-1 2 4 4 0 01-3 2 11 11 0 01-3-1l-4-1a3 3 0 01-2-1 1 1 0 010-1zM528 449l1-7a28 28 0 011-4 27 27 0 013-5 7 7 0 011-2 6 6 0 012-1 9 9 0 017 0l4 2a4 4 0 00-1-3 11 11 0 00-3-1l-1-2 2-2v-3a9 9 0 00-6-3 6 6 0 00-5 2 21 21 0 00-2 3 18 18 0 01-3 5l-8 11a34 34 0 00-2 4 17 17 0 00-2 7 5 5 0 000 2 4 4 0 003 2 10 10 0 004-1l4-1a3 3 0 001-1 1 1 0 000-2z" fill="#a1616a"/><path d="M607 611c2 1 3 3 2 5l-3 2a8 8 0 00-4 1 11 11 0 01-1 1 4 4 0 01-2 0h-5a2 2 0 01-1 0 2 2 0 010-2 19 19 0 010-4 7 7 0 012-4c1-1 5-4 6-2l1 1 2 1a7 7 0 013 1zM540 612c-1 1-3 3-2 4l3 2a8 8 0 014 1 11 11 0 001 2 4 4 0 002 0h5a2 2 0 001-1 2 2 0 000-1 20 20 0 000-5 6 6 0 00-2-4c-1 0-5-3-6-1l-1 1h-2a7 7 0 00-3 2z" fill="#3f3d56"/><path d="M557 505c-5 13-9 27-9 40 0 9 2 18-3 25a10 10 0 00-1 3v4c1 6-2 12-3 18a36 36 0 001 5l1 11c1 4 5 5 9 6a14 14 0 003-8v-6l2-15 1-7 1-6a206 206 0 019-35c1-2 2-5 5-5l1 3 5 11c2 6 1 12 4 17l1 2a14 14 0 011 4l2 18c1 8 2 16 5 23a5 5 0 002 3c1 1 3 0 5-1a9 9 0 003-7 11 11 0 010-3 16 16 0 011-2c1-4-1-7-2-11v-15c0-7-6-15-4-22 1-6 0-13-1-19l-4-22c-1-4-2-8-5-10a12 12 0 00-6-1l-24 2z" fill="#3f3d56"/><path d="M629 450a14 14 0 01-8-2 17 17 0 00-4-1h-6a25 25 0 01-10-1c-4-1-7-3-11-2l-5 2a13 13 0 01-4-1l-11-1a31 31 0 00-8-1 51 51 0 01-6 1l-6-1a17 17 0 00-4 1 56 56 0 01-17 2 25 25 0 00-12 5 2 2 0 00-1 1 2 2 0 000 1c2 2 4 4 6 4a31 31 0 003 1l10 2h6c3 0 5 3 7 5a18 18 0 014 6l1 9a6 6 0 011 1 6 6 0 010 3c-2 4 1 8 1 12l-1 6c0 2 1 5-1 7a36 36 0 0118-4 22 22 0 013 0 42 42 0 015 2c5 1 9 2 13 1l1-8-1-8a51 51 0 01-1-6 25 25 0 010-6 29 29 0 012-5 92 92 0 017-14l12-1a19 19 0 003-1 37 37 0 014-1 5 5 0 001 0l3-2a5 5 0 001 0l1-1 2-1a4 4 0 002-4z" fill="#6c63ff"/><path d="M579 431a2 2 0 002 0 3 3 0 001-1 35 35 0 001-4 4 4 0 010-2l4-1a9 9 0 004-4h-1v-1a1 1 0 010-2 4 4 0 00-2 0v-1a4 4 0 00-1 0 6 6 0 01-2-1c-5-1-9-3-14-1a16 16 0 00-5 2 7 7 0 00-3 9 23 23 0 012 5 16 16 0 01-1 5 16 16 0 004 1 5 5 0 003-1l3-3a3 3 0 013-2l2 2zM550 620h-12a2 2 0 000 3h3v20h-41a1 1 0 000-1h-12a2 2 0 000 3h2v21h-38a1 1 0 00-2-1h-11a2 2 0 000 3h1v21h-39a1 1 0 00-1 0h-12a2 2 0 000 3h2v20h-39a1 1 0 00-1-1h-12a2 2 0 000 3h1v22h265V620z" fill="#3f3d56"/><path d="M173 236a28 28 0 00-4-4 3 3 0 010-5l2-1c5-4 8-10 6-13s-8-1-14 3a21 21 0 00-1 1 3 3 0 01-6-1 28 28 0 00-2-4c-5-6-12-9-15-7s-2 10 3 16a28 28 0 003 3 3 3 0 010 6c-6 3-10 8-8 11s8 3 14 0a26 26 0 002-2 3 3 0 015 1 26 26 0 003 5c5 6 12 10 15 7s2-9-3-16zM881 409a27 27 0 003-5 3 3 0 015-1l2 1c5 4 11 5 13 2s0-8-6-12l-2-1a3 3 0 010-6 27 27 0 003-3c5-7 6-14 2-16s-9 1-14 7a28 28 0 00-2 4 3 3 0 01-6 1c-5-5-11-6-13-4s0 8 5 13a24 24 0 002 2 3 3 0 011 5 27 27 0 00-4 5c-5 6-6 13-3 16s10-1 14-8z" fill="#6c63ff" opacity=".1"/><ellipse cx="886.5" cy="740.2" rx="33.8" ry="6.5" fill="#6c63ff"/><ellipse cx="885.9" cy="737.4" rx="3.9" ry="5.2" fill="#3f3d56"/><ellipse cx="885.9" cy="731.1" rx="3.9" ry="5.2" fill="#3f3d56"/><ellipse cx="885.9" cy="724.8" rx="3.9" ry="5.2" fill="#3f3d56"/><ellipse cx="885.9" cy="718.5" rx="3.9" ry="5.2" fill="#3f3d56"/><ellipse cx="885.9" cy="712.2" rx="3.9" ry="5.2" fill="#3f3d56"/><ellipse cx="885.9" cy="706" rx="3.9" ry="5.2" fill="#3f3d56"/><ellipse cx="885.9" cy="699.6" rx="3.9" ry="5.2" fill="#3f3d56"/><path d="M901 657a20 20 0 001-3l-10-1h11a19 19 0 000-15l-15 8 14-11a19 19 0 10-31 22 19 19 0 00-2 3l13 7-14-5a19 19 0 003 18 19 19 0 1030 0 19 19 0 000-23z" fill="#6c63ff"/><path d="M867 668a19 19 0 004 12 19 19 0 1030 0c2-3-34-14-34-12z" opacity=".1"/><ellipse cx="270.5" cy="741.7" rx="15.3" ry="2.9" fill="#6c63ff"/><ellipse cx="270.2" cy="740.5" rx="1.8" ry="2.3" fill="#3f3d56"/><ellipse cx="270.2" cy="737.6" rx="1.8" ry="2.3" fill="#3f3d56"/><ellipse cx="270.2" cy="734.8" rx="1.8" ry="2.3" fill="#3f3d56"/><ellipse cx="270.2" cy="731.9" rx="1.8" ry="2.3" fill="#3f3d56"/><ellipse cx="270.2" cy="729.1" rx="1.8" ry="2.3" fill="#3f3d56"/><ellipse cx="270.2" cy="726.2" rx="1.8" ry="2.3" fill="#3f3d56"/><ellipse cx="270.2" cy="723.4" rx="1.8" ry="2.3" fill="#3f3d56"/><path d="M277 704a8 8 0 001-1l-5-1h5a9 9 0 001-3 8 8 0 00-1-4l-7 4 7-5a9 9 0 10-15 10 9 9 0 00-1 1l7 4-7-3a9 9 0 001 8 9 9 0 1014 0 9 9 0 000-10z" fill="#6c63ff"/><path d="M262 709a9 9 0 001 5 9 9 0 1014 0c1-1-15-6-15-5z" opacity=".1"/></svg>