<?xml version="1.0" encoding="UTF-8" standalone="no"?><!-- Generator: Gravit.io --><svg xmlns="http://www.w3.org/2000/svg" xmlns:xlink="http://www.w3.org/1999/xlink" style="isolation:isolate" viewBox="0 0 512 512" width="512pt" height="512pt"><defs><clipPath id="_clipPath_tmapF8lQCcdRnsJjjN2zFoU5Eeru0XQn"><rect width="512" height="512"/></clipPath></defs><g clip-path="url(#_clipPath_tmapF8lQCcdRnsJjjN2zFoU5Eeru0XQn)"><rect width="512" height="512" style="fill:rgb(17,34,62)" fill-opacity="0.9"/><path d=" M 179.617 25 L 179.617 25 Q 215.103 25 241.241 36.829 L 241.241 36.829 L 241.241 36.829 Q 267.378 48.658 281.496 70.407 L 281.496 70.407 L 281.496 70.407 Q 295.615 92.157 295.615 121.919 L 295.615 121.919 L 295.615 121.919 Q 295.615 151.301 281.496 173.241 L 281.496 173.241 L 281.496 173.241 Q 267.378 195.181 241.241 206.819 L 241.241 206.819 L 241.241 206.819 Q 215.103 218.457 179.617 218.457 L 179.617 218.457 L 125.815 218.457 L 125.815 292.101 L 64 292.101 L 64 25 L 179.617 25 Z  M 176.182 168.09 L 176.182 168.09 Q 204.037 168.09 218.537 156.07 L 218.537 156.07 L 218.537 156.07 Q 233.037 144.051 233.037 121.919 L 233.037 121.919 L 233.037 121.919 Q 233.037 99.407 218.537 87.387 L 218.537 87.387 L 218.537 87.387 Q 204.037 75.368 176.182 75.368 L 176.182 75.368 L 125.815 75.368 L 125.815 168.09 L 176.182 168.09 Z " fill="rgb(232,233,238)"/><path d=" M 391.293 289.222 L 391.293 289.222 Q 363.429 289.222 337.411 281.687 L 337.411 281.687 L 337.411 281.687 Q 311.393 274.152 295.615 262.096 L 295.615 262.096 L 314.079 221.238 L 314.079 221.238 Q 329.186 232.29 350 238.988 L 350 238.988 L 350 238.988 Q 370.814 245.686 391.629 245.686 L 391.629 245.686 L 391.629 245.686 Q 414.793 245.686 425.872 238.82 L 425.872 238.82 L 425.872 238.82 Q 436.95 231.955 436.95 220.568 L 436.95 220.568 L 436.95 220.568 Q 436.95 212.196 430.404 206.67 L 430.404 206.67 L 430.404 206.67 Q 423.857 201.144 413.618 197.795 L 413.618 197.795 L 413.618 197.795 Q 403.379 194.446 385.922 190.428 L 385.922 190.428 L 385.922 190.428 Q 359.065 184.064 341.943 177.701 L 341.943 177.701 L 341.943 177.701 Q 324.822 171.338 312.568 157.273 L 312.568 157.273 L 312.568 157.273 Q 300.315 143.207 300.315 119.764 L 300.315 119.764 L 300.315 119.764 Q 300.315 99.335 311.393 82.758 L 311.393 82.758 L 311.393 82.758 Q 322.472 66.181 344.797 56.468 L 344.797 56.468 L 344.797 56.468 Q 367.122 46.756 399.35 46.756 L 399.35 46.756 L 399.35 46.756 Q 421.843 46.756 443.329 52.115 L 443.329 52.115 L 443.329 52.115 Q 464.814 57.473 480.929 67.52 L 480.929 67.52 L 464.143 108.713 L 464.143 108.713 Q 431.579 90.293 399.014 90.293 L 399.014 90.293 L 399.014 90.293 Q 376.186 90.293 365.275 97.661 L 365.275 97.661 L 365.275 97.661 Q 354.365 105.029 354.365 117.085 L 354.365 117.085 L 354.365 117.085 Q 354.365 129.141 366.954 135.002 L 366.954 135.002 L 366.954 135.002 Q 379.543 140.863 405.393 146.556 L 405.393 146.556 L 405.393 146.556 Q 432.25 152.919 449.371 159.282 L 449.371 159.282 L 449.371 159.282 Q 466.493 165.645 478.746 179.376 L 478.746 179.376 L 478.746 179.376 Q 491 193.107 491 216.55 L 491 216.55 L 491 216.55 Q 491 236.643 479.754 253.221 L 479.754 253.221 L 479.754 253.221 Q 468.507 269.798 446.014 279.51 L 446.014 279.51 L 446.014 279.51 Q 423.522 289.222 391.293 289.222 L 391.293 289.222 Z " fill="rgb(232,233,238)"/><path d=" M 374.012 308 L 374.012 308 Q 419.457 308 446.228 329.032 L 446.228 329.032 L 446.228 329.032 Q 473 350.064 473 392.128 L 473 392.128 L 473 501 L 402.809 501 L 402.809 400.612 L 402.809 400.612 Q 402.809 377.989 390.885 366.854 L 390.885 366.854 L 390.885 366.854 Q 378.961 355.72 356.914 355.72 L 356.914 355.72 L 356.914 355.72 Q 332.167 355.72 317.769 368.268 L 317.769 368.268 L 317.769 368.268 Q 303.371 380.817 303.371 405.56 L 303.371 405.56 L 303.371 501 L 233.179 501 L 233.179 400.612 L 233.179 400.612 Q 233.179 355.72 187.285 355.72 L 187.285 355.72 L 187.285 355.72 Q 162.988 355.72 148.59 368.268 L 148.59 368.268 L 148.59 368.268 Q 134.191 380.817 134.191 405.56 L 134.191 405.56 L 134.191 501 L 64 501 L 64 310.828 L 131.042 310.828 L 131.042 332.744 L 131.042 332.744 Q 144.54 320.725 164.113 314.363 L 164.113 314.363 L 164.113 314.363 Q 183.685 308 207.083 308 L 207.083 308 L 207.083 308 Q 232.729 308 253.427 315.953 L 253.427 315.953 L 253.427 315.953 Q 274.124 323.907 286.723 339.106 L 286.723 339.106 L 286.723 339.106 Q 301.571 324.26 324.293 316.13 L 324.293 316.13 L 324.293 316.13 Q 347.015 308 374.012 308 L 374.012 308 Z " fill="rgb(232,233,238)"/></g></svg>